<?xml version="1.0" encoding="UTF-8"?>
<svg xmlns="http://www.w3.org/2000/svg" width="1024" height="1024" viewBox="0 0 1024 1024">
  <defs>
    <linearGradient id="gold" x1="0" y1="0" x2="1" y2="1">
      <stop offset="0" stop-color="#C9A74E"/>
      <stop offset="1" stop-color="#F5E6B3"/>
    </linearGradient>
    <filter id="softShadow" x="-20%" y="-20%" width="140%" height="140%">
      <feDropShadow dx="0" dy="18" stdDeviation="22" flood-color="#000000" flood-opacity="0.45"/>
    </filter>
    <filter id="innerSpec" x="-20%" y="-20%" width="140%" height="140%">
      <feGaussianBlur in="SourceAlpha" stdDeviation="6" result="blur"/>
      <feOffset dx="0" dy="2" result="off"/>
      <feComposite in="off" in2="SourceAlpha" operator="arithmetic" k2="-1" k3="1" result="inner"/>
      <feColorMatrix in="inner" type="matrix"
        values="1 0 0 0 0
                0 1 0 0 0
                0 0 1 0 0
                0 0 0 0.35 0" />
      <feComposite in="SourceGraphic" operator="over"/>
    </filter>
  </defs>

  <!-- Background -->
  <rect width="1024" height="1024" fill="#020617"/>

  <!-- Mark group -->
  <g filter="url(#softShadow)">
    <!-- Minimal Maqam Echahid mark (3 wings) -->
    <g fill="none" stroke-linecap="round" stroke-linejoin="round">
      <!-- center wing -->
      <path d="M512 248 C550 296 572 360 572 432 C572 540 520 628 512 642 C504 628 452 540 452 432 C452 360 474 296 512 248 Z"
            stroke="url(#gold)" stroke-width="22" filter="url(#innerSpec)"/>
      <!-- left wing -->
      <path d="M512 268 C438 302 392 374 392 456 C392 520 420 574 456 616"
            stroke="url(#gold)" stroke-width="20" opacity="0.95"/>
      <!-- right wing -->
      <path d="M512 268 C586 302 632 374 632 456 C632 520 604 574 568 616"
            stroke="url(#gold)" stroke-width="20" opacity="0.95"/>
      <!-- base -->
      <path d="M420 690 C460 660 492 646 512 642 C532 646 564 660 604 690"
            stroke="url(#gold)" stroke-width="18" opacity="0.85"/>
    </g>
  </g>
</svg>

